<svg xmlns="http://www.w3.org/2000/svg" width="32" height="32" version="1.1"><defs><filter id="a" width="1.6" height="1.6" x="-.3" y="-.3" color-interpolation-filters="sRGB"><feGaussianBlur stdDeviation="2.5"/></filter></defs><path stroke="#000" stroke-linecap="round" stroke-linejoin="round" stroke-width="2" d="m16 6c-5.523 0-10 4.477-10 10s4.477 10 10 10 10-4.477 10-10-4.477-10-10-10zm0 2v16c-4.418 0-8-3.582-8-8s3.582-8 8-8z" filter="url(#a)"/><path fill="#fff" d="m16 6c-5.523 0-10 4.477-10 10s4.477 10 10 10 10-4.477 10-10-4.477-10-10-10zm0 2v16c-4.418 0-8-3.582-8-8s3.582-8 8-8z"/></svg>