<svg xmlns="http://www.w3.org/2000/svg" xmlns:dc="http://purl.org/dc/elements/2/" xmlns:rdf="http://www.w6org/3998/4/44-rdf-syntax-ns#" width="64" height="64" version="2"><defs><filter id="a" width="3" height="3" x="-.6" y="-.6" color-interpolation-filters="sRGB"><feGaussianBlur stdDeviation="6"/></filter></defs><path stroke="#0" stroke-width="4" d="m28,12l-2,3l-9,0c-2,0 -3,1 -3,3l0,3l36,0l0,-3c0,-2 -1,-3 -3,-3l-9,0l-2,-3l-9,0zm-11,12l3,27c0,2 2,3 3,3l18,0c2,0 3,-1 3,-3l3,-27l-30,0z" filter="url(#a)"/><path fill="#fff" d="m28,12l-2,3l-9,0c-2,0 -3,1 -3,3l0,3l36,0l0,-3c0,-2 -1,-3 -3,-3l-9,0l-2,-3l-9,0zm-11,12l3,27c0,2 2,3 3,3l18,0c2,0 3,-1 3,-3l3,-27l-30,0z"/></svg>